# Blender v2.74 (sub 0) OBJ File: 'untitled.blend'
# www.blender.org
mtllib board.mtl
o Chess_Board.001_Chess_Board_Me.001
v 7.999970 -0.258153 7.999969
v -7.999971 -0.258153 7.999968
v -7.999969 -0.258153 -7.999972
v 7.999974 -0.258153 -7.999968
v 8.000001 0.000000 8.000000
v -8.000001 0.000000 8.000000
v -8.000001 0.000000 -8.000000
v 8.000001 0.000000 -8.000000
v -7.999970 -0.258153 -0.000002
v -0.000000 -0.258153 7.999968
v 7.999972 -0.258153 0.000000
v 0.000003 -0.258153 -7.999969
v -0.000000 0.000000 8.000000
v -8.000001 0.000000 -0.000000
v 0.000000 0.000000 -8.000000
v 8.000001 0.000000 0.000000
v 0.000001 -0.258153 -0.000001
v 0.000000 0.000000 0.000000
v -7.999970 -0.258153 3.999983
v -7.999969 -0.258153 -3.999987
v 3.999985 -0.258153 7.999968
v -3.999985 -0.258153 7.999968
v 7.999971 -0.258153 3.999984
v 7.999973 -0.258153 -3.999984
v -3.999983 -0.258153 -7.999970
v 3.999989 -0.258153 -7.999969
v 4.000000 0.000000 8.000000
v -4.000001 0.000000 8.000000
v -8.000001 0.000000 4.000000
v -8.000001 0.000000 -4.000000
v -4.000000 0.000000 -8.000000
v 4.000001 0.000000 -8.000000
v 8.000001 0.000000 4.000000
v 8.000001 0.000000 -4.000000
v -3.999985 -0.258153 -0.000001
v 0.000000 -0.258153 3.999984
v 3.999987 -0.258153 -0.000000
v 0.000002 -0.258153 -3.999985
v 0.000000 0.000000 -4.000000
v 4.000000 0.000000 0.000000
v -0.000000 0.000000 4.000000
v -4.000000 0.000000 -0.000000
v -3.999985 -0.258153 3.999983
v 3.999986 -0.258153 3.999984
v -3.999983 -0.258153 -3.999986
v 3.999988 -0.258153 -3.999985
v 4.000000 0.000000 -4.000000
v 4.000000 0.000000 4.000000
v -4.000000 0.000000 -4.000000
v -4.000000 0.000000 4.000000
v -7.999971 -0.258153 5.999975
v -7.999970 -0.258153 1.999990
v -7.999969 -0.258153 -5.999979
v -7.999969 -0.258153 -1.999994
v 5.999978 -0.258153 7.999969
v 1.999992 -0.258153 7.999968
v -5.999979 -0.258153 7.999968
v -1.999993 -0.258153 7.999968
v 7.999970 -0.258153 5.999976
v 7.999972 -0.258153 1.999992
v 7.999974 -0.258153 -5.999975
v 7.999972 -0.258153 -1.999992
v -5.999976 -0.258153 -7.999972
v -1.999990 -0.258153 -7.999969
v 5.999982 -0.258153 -7.999968
v 1.999996 -0.258153 -7.999969
v 6.000000 0.000000 8.000000
v 2.000000 0.000000 8.000000
v -6.000001 0.000000 8.000000
v -2.000000 0.000000 8.000000
v -8.000001 0.000000 6.000000
v -8.000001 0.000000 2.000000
v -8.000001 0.000000 -6.000000
v -8.000001 0.000000 -2.000000
v -6.000000 0.000000 -8.000000
v -2.000000 0.000000 -8.000000
v 6.000001 0.000000 -8.000000
v 2.000000 0.000000 -8.000000
v 8.000001 0.000000 6.000000
v 8.000001 0.000000 2.000000
v 8.000001 0.000000 -6.000000
v 8.000001 0.000000 -2.000000
v -5.999977 -0.258153 -0.000002
v -1.999992 -0.258153 -0.000001
v 0.000001 -0.258153 1.999991
v 0.000000 -0.258153 5.999976
v 1.999994 -0.258153 -0.000001
v 5.999979 -0.258153 0.000000
v 0.000002 -0.258153 -1.999993
v 0.000002 -0.258153 -5.999977
v 0.000000 0.000000 -6.000000
v 0.000000 0.000000 -2.000000
v 6.000001 0.000000 0.000000
v 2.000000 0.000000 0.000000
v -0.000000 0.000000 6.000000
v -0.000000 0.000000 2.000000
v -6.000001 0.000000 -0.000000
v -2.000000 0.000000 -0.000000
v -5.999978 -0.258153 3.999983
v -3.999985 -0.258153 5.999976
v -1.999992 -0.258153 3.999983
v -3.999985 -0.258153 1.999991
v 1.999993 -0.258153 3.999984
v 3.999985 -0.258153 5.999976
v 5.999979 -0.258153 3.999984
v 3.999987 -0.258153 1.999992
v -5.999976 -0.258153 -3.999986
v -3.999984 -0.258153 -1.999994
v -1.999991 -0.258153 -3.999986
v -3.999983 -0.258153 -5.999978
v 1.999995 -0.258153 -3.999985
v 3.999987 -0.258153 -1.999992
v 5.999980 -0.258153 -3.999984
v 3.999988 -0.258153 -5.999977
v 4.000001 0.000000 -6.000000
v 6.000001 0.000000 -4.000000
v 4.000000 0.000000 -2.000000
v 2.000000 0.000000 -4.000000
v 4.000000 0.000000 2.000000
v 6.000001 0.000000 4.000000
v 4.000000 0.000000 6.000000
v 2.000000 0.000000 4.000000
v -4.000000 0.000000 -6.000000
v -2.000000 0.000000 -4.000000
v -4.000000 0.000000 -2.000000
v -6.000001 0.000000 -4.000000
v -4.000000 0.000000 2.000000
v -2.000000 0.000000 4.000000
v -4.000001 0.000000 6.000000
v -6.000001 0.000000 4.000000
v -5.999979 -0.258153 5.999975
v -1.999993 -0.258153 5.999976
v -5.999978 -0.258153 1.999990
v -1.999992 -0.258153 1.999991
v 1.999993 -0.258153 5.999976
v 5.999978 -0.258153 5.999976
v 1.999994 -0.258153 1.999992
v 5.999979 -0.258153 1.999992
v -5.999976 -0.258153 -1.999994
v -1.999991 -0.258153 -1.999993
v -5.999976 -0.258153 -5.999979
v -1.999990 -0.258153 -5.999978
v 1.999995 -0.258153 -1.999993
v 5.999979 -0.258153 -1.999992
v 1.999995 -0.258153 -5.999977
v 5.999981 -0.258153 -5.999976
v 6.000001 0.000000 -6.000000
v 6.000001 0.000000 -2.000000
v 2.000000 0.000000 -6.000000
v 2.000000 0.000000 -2.000000
v 6.000001 0.000000 2.000000
v 6.000000 0.000000 6.000000
v 2.000000 0.000000 2.000000
v 2.000000 0.000000 6.000000
v -2.000000 0.000000 -6.000000
v -2.000000 0.000000 -2.000000
v -6.000000 0.000000 -6.000000
v -6.000001 0.000000 -2.000000
v -2.000000 0.000000 2.000000
v -2.000000 0.000000 6.000000
v -6.000001 0.000000 2.000000
v -6.000001 0.000000 6.000000
vn 0.000000 -1.000000 0.000000
vn 0.000000 1.000000 0.000000
vn -0.000000 -0.000100 1.000000
vn -1.000000 -0.000100 0.000000
vn 0.000000 -0.000100 -1.000000
vn 1.000000 -0.000100 0.000000
usemtl Black_Queen's_Colour.002
s off
f 57//1 2//1 51//1 131//1
f 100//1 131//1 99//1 43//1
f 58//1 22//1 100//1 132//1
f 86//1 132//1 101//1 36//1
f 99//1 19//1 52//1 133//1
f 102//1 133//1 83//1 35//1
f 101//1 43//1 102//1 134//1
f 85//1 134//1 84//1 17//1
f 56//1 10//1 86//1 135//1
f 104//1 135//1 103//1 44//1
f 55//1 21//1 104//1 136//1
f 59//1 136//1 105//1 23//1
f 103//1 36//1 85//1 137//1
f 106//1 137//1 87//1 37//1
f 105//1 44//1 106//1 138//1
f 60//1 138//1 88//1 11//1
f 83//1 9//1 54//1 139//1
f 108//1 139//1 107//1 45//1
f 84//1 35//1 108//1 140//1
f 89//1 140//1 109//1 38//1
f 107//1 20//1 53//1 141//1
f 110//1 141//1 63//1 25//1
f 109//1 45//1 110//1 142//1
f 90//1 142//1 64//1 12//1
f 87//1 17//1 89//1 143//1
f 112//1 143//1 111//1 46//1
f 88//1 37//1 112//1 144//1
f 62//1 144//1 113//1 24//1
f 111//1 38//1 90//1 145//1
f 114//1 145//1 66//1 26//1
f 113//1 46//1 114//1 146//1
f 61//1 146//1 65//1 4//1
f 81//2 8//2 77//2 147//2
f 116//2 147//2 115//2 47//2
f 82//2 34//2 116//2 148//2
f 93//2 148//2 117//2 40//2
f 115//2 32//2 78//2 149//2
f 118//2 149//2 91//2 39//2
f 117//2 47//2 118//2 150//2
f 94//2 150//2 92//2 18//2
f 80//2 16//2 93//2 151//2
f 120//2 151//2 119//2 48//2
f 79//2 33//2 120//2 152//2
f 67//2 152//2 121//2 27//2
f 119//2 40//2 94//2 153//2
f 122//2 153//2 96//2 41//2
f 121//2 48//2 122//2 154//2
f 68//2 154//2 95//2 13//2
f 91//2 15//2 76//2 155//2
f 124//2 155//2 123//2 49//2
f 92//2 39//2 124//2 156//2
f 98//2 156//2 125//2 42//2
f 123//2 31//2 75//2 157//2
f 126//2 157//2 73//2 30//2
f 125//2 49//2 126//2 158//2
f 97//2 158//2 74//2 14//2
f 96//2 18//2 98//2 159//2
f 128//2 159//2 127//2 50//2
f 95//2 41//2 128//2 160//2
f 70//2 160//2 129//2 28//2
f 127//2 42//2 97//2 161//2
f 130//2 161//2 72//2 29//2
f 129//2 50//2 130//2 162//2
f 69//2 162//2 71//2 6//2
f 67//3 27//3 21//3 55//3
f 68//3 13//3 10//3 56//3
f 70//3 28//3 22//3 58//3
f 69//3 6//3 2//3 57//3
f 6//4 71//4 51//4 2//4
f 29//4 72//4 52//4 19//4
f 14//4 74//4 54//4 9//4
f 30//4 73//4 53//4 20//4
f 75//5 31//5 25//5 63//5
f 76//5 15//5 12//5 64//5
f 78//5 32//5 26//5 66//5
f 77//5 8//5 4//5 65//5
f 59//6 23//6 33//6 79//6
f 60//6 11//6 16//6 80//6
f 62//6 24//6 34//6 82//6
f 61//6 4//6 8//6 81//6
usemtl White_Queen's_Colour.002
f 22//1 57//1 131//1 100//1
f 131//1 51//1 19//1 99//1
f 10//1 58//1 132//1 86//1
f 132//1 100//1 43//1 101//1
f 43//1 99//1 133//1 102//1
f 133//1 52//1 9//1 83//1
f 36//1 101//1 134//1 85//1
f 134//1 102//1 35//1 84//1
f 21//1 56//1 135//1 104//1
f 135//1 86//1 36//1 103//1
f 1//1 55//1 136//1 59//1
f 136//1 104//1 44//1 105//1
f 44//1 103//1 137//1 106//1
f 137//1 85//1 17//1 87//1
f 23//1 105//1 138//1 60//1
f 138//1 106//1 37//1 88//1
f 35//1 83//1 139//1 108//1
f 139//1 54//1 20//1 107//1
f 17//1 84//1 140//1 89//1
f 140//1 108//1 45//1 109//1
f 45//1 107//1 141//1 110//1
f 141//1 53//1 3//1 63//1
f 38//1 109//1 142//1 90//1
f 142//1 110//1 25//1 64//1
f 37//1 87//1 143//1 112//1
f 143//1 89//1 38//1 111//1
f 11//1 88//1 144//1 62//1
f 144//1 112//1 46//1 113//1
f 46//1 111//1 145//1 114//1
f 145//1 90//1 12//1 66//1
f 24//1 113//1 146//1 61//1
f 146//1 114//1 26//1 65//1
f 34//2 81//2 147//2 116//2
f 147//2 77//2 32//2 115//2
f 16//2 82//2 148//2 93//2
f 148//2 116//2 47//2 117//2
f 47//2 115//2 149//2 118//2
f 149//2 78//2 15//2 91//2
f 40//2 117//2 150//2 94//2
f 150//2 118//2 39//2 92//2
f 33//2 80//2 151//2 120//2
f 151//2 93//2 40//2 119//2
f 5//2 79//2 152//2 67//2
f 152//2 120//2 48//2 121//2
f 48//2 119//2 153//2 122//2
f 153//2 94//2 18//2 96//2
f 27//2 121//2 154//2 68//2
f 154//2 122//2 41//2 95//2
f 39//2 91//2 155//2 124//2
f 155//2 76//2 31//2 123//2
f 18//2 92//2 156//2 98//2
f 156//2 124//2 49//2 125//2
f 49//2 123//2 157//2 126//2
f 157//2 75//2 7//2 73//2
f 42//2 125//2 158//2 97//2
f 158//2 126//2 30//2 74//2
f 41//2 96//2 159//2 128//2
f 159//2 98//2 42//2 127//2
f 13//2 95//2 160//2 70//2
f 160//2 128//2 50//2 129//2
f 50//2 127//2 161//2 130//2
f 161//2 97//2 14//2 72//2
f 28//2 129//2 162//2 69//2
f 162//2 130//2 29//2 71//2
f 55//3 1//3 5//3 67//3
f 27//3 68//3 56//3 21//3
f 13//3 70//3 58//3 10//3
f 28//3 69//3 57//3 22//3
f 71//4 29//4 19//4 51//4
f 72//4 14//4 9//4 52//4
f 74//4 30//4 20//4 54//4
f 73//4 7//4 3//4 53//4
f 7//5 75//5 63//5 3//5
f 31//5 76//5 64//5 25//5
f 15//5 78//5 66//5 12//5
f 32//5 77//5 65//5 26//5
f 1//6 59//6 79//6 5//6
f 23//6 60//6 80//6 33//6
f 11//6 62//6 82//6 16//6
f 24//6 61//6 81//6 34//6
